<svg xmlns="http://www.w3.org/2000/svg" xml:space="preserve" width="2000" height="559"
    data-id="lg_tukVgDsbLgDtXKWDd6" data-version="1" viewBox="0 0 2000 559"><g data-padding="20"><g transform="translate(10 10.854)scale(.96117)"><rect width="514.553" height="559.35" x="515.103" y="-280.175" fill="none" rx="0" ry="0" transform="translate(257.62 280)"/><path fill="#ec4104" d="M1038.52 439.97q-10.87 0-23.8-1.81-12.92-1.81-24.64-5.67-11.71-3.87-18.96-9.42-.72-4.11-.72-10.63 0-8.7 1.57-19.33 1.57-10.62 4.71-17.39L871.12 152.29l-1.21.48q2.18 7.25 7.25 26.09t11.47 44.45q6.41 25.6 12.69 53.5t11.23 53.62q4.95 25.73 6.88 44.57.24 2.66.36 5.43.13 2.78.13 5.44 0 22.7-11.72 38.28t-39.49 15.58q-21.5 0-40.22-10.62-18.72-10.63-27.18-28.51l7.49-39.37 26.81 2.17-1.93-212.32q-10.38-.72-21.5-3.62-11.11-2.9-20.29-8.7 0-14.49 2.78-29.22 2.78-14.74 11.11-27.42 8.34-12.68 24.52-21.38 11.6 1.45 30.56 5.92t40.21 12.68q21.26 8.22 39.14 21.02l93.72 240.1.96-.97q-2.9-17.15-7.49-44.2-4.59-27.06-9.66-58.09-5.07-31.04-9.54-60.75t-7.25-52.9q-2.77-23.19-2.77-34.06 4.59-9.66 22.22-16.79 17.63-7.12 36.71-7.12 9.67 0 21.38 2.65 11.72 2.66 19.2 7.73l-20.77 274.88q9.66 11.84 16.31 23.31 6.64 11.48 9.78 29.11-7.97 19.32-25.48 28.02-17.52 8.69-39.01 8.69m163.04-.24q-11.11 0-22.22-6.04-11.11-6.03-20.78-14.85-9.66-8.82-16.9-17.27-3.63-4.11-5.8-10.27t-.24-16.54l16.66-86.24q-4.34-22.7-8.45-49.88-4.11-27.17-7.61-54.1t-6.16-49.64q-2.65-22.71-3.86-37.32t-.97-16.79q11.6-14.73 32.85-25 21.26-10.26 42.76-10.5 10.38-.25 20.04 2.41 9.67 2.66 17.4 8.94-1.21 38.16-3.99 80.19t-7.37 95.53q-4.59 53.51-11.83 126.7l34.54-16.19 19.32 30.68q-4.59 14.01-14.73 29.35-10.15 15.34-23.79 26.08-13.65 10.75-28.87 10.75"/></g><path fill="transparent" stroke="transparent" d="M742.5 0h515v559h-515z"/></g></svg>