<?xml version="1.0" standalone="no"?>
<!DOCTYPE svg PUBLIC "-//W3C//DTD SVG 20010904//EN"
 "http://www.w3.org/TR/2001/REC-SVG-20010904/DTD/svg10.dtd">
<svg version="1.0" xmlns="http://www.w3.org/2000/svg"
 width="1320.000000pt" height="1000.000000pt" viewBox="0 0 1320.000000 1000.000000"
 preserveAspectRatio="xMidYMid meet">

<rect width="100%" height="100%" fill="black" />

<g transform="translate(0.000000,1000.000000) scale(0.100000,-0.100000)"
fill="#FFD700" stroke="none">
<path d="M0 5000 l0 -5000 6600 0 6600 0 0 5000 0 5000 -6600 0 -6600 0 0
-5000z m4224 1401 c0 -28 -3 -53 -5 -56 -7 -7 -1039 -323 -1439 -440 -201 -59
-368 -111 -372 -114 -3 -3 -41 -187 -84 -408 -43 -222 -81 -403 -85 -403 -4 0
-6 60 -4 133 3 113 12 174 62 424 33 162 67 302 76 317 14 21 62 40 309 120
582 189 1531 485 1538 480 3 -1 5 -25 4 -53z m3199 -753 c92 -277 267 -794
387 -1150 l219 -648 -63 0 -62 0 -206 623 c-114 342 -262 794 -330 1004 -68
210 -126 379 -129 375 -4 -4 -92 -270 -197 -592 -105 -322 -251 -769 -324
-995 l-134 -410 -58 -3 c-43 -2 -57 0 -54 10 23 89 766 2288 773 2288 6 0 86
-226 178 -502z m1532 478 c90 -25 159 -62 220 -118 103 -94 144 -194 152 -370
4 -75 1 -140 -7 -180 -24 -124 -96 -246 -182 -309 l-40 -28 29 -7 c235 -57
406 -387 372 -718 -11 -108 -22 -151 -60 -235 -63 -138 -171 -241 -297 -282
-62 -20 -92 -22 -404 -26 l-338 -5 0 661 0 661 55 0 c29 0 157 2 282 3 273 5
298 11 384 96 80 80 104 153 104 316 0 145 -23 222 -93 311 -81 104 -185 133
-464 134 l-158 0 0 -395 0 -395 -55 0 -55 0 0 456 0 456 248 -5 c188 -3 261
-8 307 -21z m1005 -1127 l0 -1139 -35 0 -35 0 0 1143 0 1143 35 -4 35 -4 0
-1139z m470 286 l0 -855 -45 0 -45 0 0 855 0 855 45 0 45 0 0 -855z m-4350
-310 c0 -671 -4 -1115 -9 -1115 -11 0 -52 76 -210 383 l-112 217 49 0 49 0 74
-159 74 -159 3 974 2 974 40 0 40 0 0 -1115z m-1856 -387 c0 -288 -4 -532 -7
-544 -12 -34 -45 -42 -201 -49 -80 -4 -149 -11 -151 -15 -2 -4 13 -72 35 -151
43 -154 49 -227 25 -285 -27 -66 -11 -64 -722 -63 -351 1 -620 5 -598 9 22 4
171 13 330 19 370 15 387 17 418 45 44 41 48 82 27 244 -11 80 -22 147 -24
149 -2 3 -226 -7 -498 -21 -271 -14 -523 -26 -559 -26 l-65 0 -1 205 c0 113 3
205 6 205 3 0 215 24 471 54 256 30 663 75 905 100 242 25 463 49 490 53 l50
8 31 290 c32 293 32 295 37 295 1 0 2 -235 1 -522z m-1987 360 c-3 -8 -6 -5
-6 6 -1 11 2 17 5 13 3 -3 4 -12 1 -19z m4967 -500 c42 -148 156 -578 156
-587 0 -6 -21 -11 -50 -11 -49 0 -49 1 -59 38 -6 20 -44 164 -85 319 -42 154
-76 284 -76 287 0 3 22 6 50 6 l49 0 15 -52z m3226 -358 l0 -140 88 -1 c48 0
81 -3 73 -6 -11 -5 -11 -7 0 -14 12 -7 11 -9 -1 -9 -13 0 -13 -1 0 -10 13 -9
13 -10 0 -10 -13 0 -13 -1 0 -10 13 -9 13 -10 0 -10 -13 0 -13 -1 0 -10 10 -7
-28 -10 -117 -10 l-133 0 0 185 0 185 45 0 45 0 0 -140z"/>
<path d="M8510 4568 l0 -598 255 0 c147 0 276 5 307 11 209 44 338 233 338
496 0 191 -63 356 -174 461 -104 97 -132 104 -421 110 l-241 4 -31 57 -32 56
-1 -597z"/>
</g>
</svg>
